<svg id="レイヤー_1" data-name="レイヤー 1" xmlns="http://www.w3.org/2000/svg" viewBox="0 0 556.6 656.37"><defs><style>.cls-1{fill:none;stroke:#004d6f;stroke-linecap:round;stroke-linejoin:round;stroke-width:6px;}.cls-2{fill:#fff;}</style></defs><title>cmsosaka-summer2016</title><path class="cls-1" d="M221,508.12q15.76,0,24.54,9.37T254.33,544q0,27-13,42.89T205.24,605l-1.81-8.66q15.76-1.68,25.32-10t13.69-23.57l-0.13-.13q-9,10.08-23.51,10.08T196,564.25q-8.46-8.46-8.46-23.19,0-15,9.17-24T221,508.12Zm0,8.66q-11,0-17.05,6.33t-6.07,18q0,11.11,6.26,17.37T221,564.7a22,22,0,0,0,16.4-6.59q6.46-6.59,6.46-17.05,0-11.5-6.07-17.89T221,516.78Z" transform="translate(-4.89 -3.2)"/><path class="cls-1" d="M304.86,509.41l-44.44,99.46H250.35l44.44-99.46h10.08Z" transform="translate(-4.89 -3.2)"/><path class="cls-1" d="M339.21,516.78q-11.76,0-24,7.23l-2.71-8.14a56.26,56.26,0,0,1,28-7.75q13.43,0,21.12,5.88a18.77,18.77,0,0,1,7.69,15.69q0,17.82-20.8,23v0.26q22.73,3.75,22.73,23.64,0,13.56-8.78,21T337.66,605a53.28,53.28,0,0,1-27.9-8l2.58-8.27a45.9,45.9,0,0,0,24.93,7.62q11.62,0,17.63-5.1t6-15q0-9.3-7.23-14t-23.25-4.65h-6.07v-8.53h6.07q14.21,0,21.51-4.65a14.66,14.66,0,0,0,7.3-13Q359.23,516.78,339.21,516.78Z" transform="translate(-4.89 -3.2)"/><path class="cls-2" d="M221,508.12q15.76,0,24.54,9.37T254.33,544q0,27-13,42.89T205.24,605l-1.81-8.66q15.76-1.68,25.32-10t13.69-23.57l-0.13-.13q-9,10.08-23.51,10.08T196,564.25q-8.46-8.46-8.46-23.19,0-15,9.17-24T221,508.12Zm0,8.66q-11,0-17.05,6.33t-6.07,18q0,11.11,6.26,17.37T221,564.7a22,22,0,0,0,16.4-6.59q6.46-6.59,6.46-17.05,0-11.5-6.07-17.89T221,516.78Z" transform="translate(-4.89 -3.2)"/><path class="cls-2" d="M304.86,509.41l-44.44,99.46H250.35l44.44-99.46h10.08Z" transform="translate(-4.89 -3.2)"/><path class="cls-2" d="M339.21,516.78q-11.76,0-24,7.23l-2.71-8.14a56.26,56.26,0,0,1,28-7.75q13.43,0,21.12,5.88a18.77,18.77,0,0,1,7.69,15.69q0,17.82-20.8,23v0.26q22.73,3.75,22.73,23.64,0,13.56-8.78,21T337.66,605a53.28,53.28,0,0,1-27.9-8l2.58-8.27a45.9,45.9,0,0,0,24.93,7.62q11.62,0,17.63-5.1t6-15q0-9.3-7.23-14t-23.25-4.65h-6.07v-8.53h6.07q14.21,0,21.51-4.65a14.66,14.66,0,0,0,7.3-13Q359.23,516.78,339.21,516.78Z" transform="translate(-4.89 -3.2)"/><path class="cls-1" d="M248.88,618.4a9.31,9.31,0,0,0-6,1.7,5.7,5.7,0,0,0-2.12,4.71q0,5.4,7.91,7.8,6.91,2,9.83,5a10.72,10.72,0,0,1,2.93,7.8q0,5.4-3.37,8.27t-9.61,2.87a21.83,21.83,0,0,1-12.26-3.51l1.34-3.68a18.36,18.36,0,0,0,10.92,3.45,9.42,9.42,0,0,0,6.32-1.89,6.88,6.88,0,0,0,2.2-5.52,7.44,7.44,0,0,0-1.87-5.32q-1.87-2-6.55-3.43-12.2-3.62-12.2-11.87a9,9,0,0,1,3.32-7.3q3.32-2.73,9.17-2.73a26.49,26.49,0,0,1,11.7,2.62l-1.11,3.46A23.12,23.12,0,0,0,248.88,618.4Z" transform="translate(-4.89 -3.2)"/><path class="cls-1" d="M263.62,656l14.88-40.68h5L298.39,656h-4.79l-4.07-11.87H272.36L268.24,656h-4.62Zm10-15.44H288.3L281,619.35h-0.11Z" transform="translate(-4.89 -3.2)"/><path class="cls-1" d="M295.28,615.34H325v3.79H312.39V656h-4.46V619.12H295.28v-3.79Z" transform="translate(-4.89 -3.2)"/><path class="cls-2" d="M248.88,618.4a9.31,9.31,0,0,0-6,1.7,5.7,5.7,0,0,0-2.12,4.71q0,5.4,7.91,7.8,6.91,2,9.83,5a10.72,10.72,0,0,1,2.93,7.8q0,5.4-3.37,8.27t-9.61,2.87a21.83,21.83,0,0,1-12.26-3.51l1.34-3.68a18.36,18.36,0,0,0,10.92,3.45,9.42,9.42,0,0,0,6.32-1.89,6.88,6.88,0,0,0,2.2-5.52,7.44,7.44,0,0,0-1.87-5.32q-1.87-2-6.55-3.43-12.2-3.62-12.2-11.87a9,9,0,0,1,3.32-7.3q3.32-2.73,9.17-2.73a26.49,26.49,0,0,1,11.7,2.62l-1.11,3.46A23.12,23.12,0,0,0,248.88,618.4Z" transform="translate(-4.89 -3.2)"/><path class="cls-2" d="M263.62,656l14.88-40.68h5L298.39,656h-4.79l-4.07-11.87H272.36L268.24,656h-4.62Zm10-15.44H288.3L281,619.35h-0.11Z" transform="translate(-4.89 -3.2)"/><path class="cls-2" d="M295.28,615.34H325v3.79H312.39V656h-4.46V619.12H295.28v-3.79Z" transform="translate(-4.89 -3.2)"/><path class="cls-2" d="M106.92,40.11q-26,0-41,15.6T51,99q0,27.24,15.6,43.08T106.92,158q21.54,0,42.58-13.62L161.38,175Q136.62,191.88,103,191.87q-43.08,0-69.07-25T7.89,99Q7.89,55.71,33.14,31T103,6.2q33.67,0,58.43,16.83L149.5,53.73Q128.45,40.12,106.92,40.11Z" transform="translate(-4.89 -3.2)"/><path class="cls-2" d="M320.46,66.36H320l-27.23,123H249.66l-27.23-123h-0.5l-10.4,123h-40.6L193,8.67h50.26l28.22,133.69h0.5L300.16,8.67h50.26l22,180.72H330.86Z" transform="translate(-4.89 -3.2)"/><path class="cls-2" d="M501,50.76a110.26,110.26,0,0,0-49.51-11.64q-12.87,0-19.56,5a15.78,15.78,0,0,0-6.68,13.37q0,13.87,20.8,19.81Q483,87.4,497.94,101.51t15,36.39q0,26.24-17.82,40.11t-52.73,13.86A117.5,117.5,0,0,1,409.93,187q-16.84-4.83-28.22-12.5l9.9-32.93q25.25,17.33,52.48,17.33,12.87,0,19.43-5.32t6.56-15a16.78,16.78,0,0,0-5.32-12.87q-5.33-5-18.69-8.91-33.92-9.9-48.65-24.14T382.7,57.44q0-23.52,17.58-37.38T449.79,6.2Q484,6.2,509,18.08Z" transform="translate(-4.89 -3.2)"/><path class="cls-2" d="M14.09,342.2V318.3H182.14v23.9H109.68q-0.39,1-.87,2.6t-0.67,2.41h63.6v73.23H90.6l-5.78,5.2h77.09v17.73q-10.41,9.25-26.79,17.34a427.6,427.6,0,0,0,48.57,4.63l-7.13,22.55Q134,485.58,98.7,474.6q-34.11,9.64-79,13.3l-7.13-22.55q30.25-1.73,51.26-4.82a118.86,118.86,0,0,1-14.26-8.67l8.29-8.48H57.45A201.34,201.34,0,0,1,20.84,458L10,437a228.2,228.2,0,0,0,45.29-16.57H24.5V347.21H76.92a15.84,15.84,0,0,0,.87-2.41q0.48-1.64.67-2.6H14.09Zm41.24,26.6H140.9v-5H55.33v5Zm0,13.49v5H140.9v-5H55.33ZM140.9,405.8v-5H55.33v5H140.9ZM100.43,453.2q16.57-4.62,26.79-9.83H74A177.73,177.73,0,0,0,100.43,453.2Z" transform="translate(-4.89 -3.2)"/><path class="cls-2" d="M190.26,347.59q24.47-17.34,38.93-36.62l19.66,11.76h18.89a67.36,67.36,0,0,1-2.51-6.74l27.17-3.28a177.58,177.58,0,0,0,11.95,26.21V321.19h56.47v22.36a196.92,196.92,0,0,1-23.7,33.92Q351.18,388.84,372,400l-11,25.63q-4.63-2.5-8.29-4.82v15H335q18.69,16.77,32.38,31l-18.89,18.5q-22.74-23.13-41.82-39.32l10.41-10.21H299.14V453.4q0,8.29-.29,13.11a37.18,37.18,0,0,1-1.64,9.06,16,16,0,0,1-3.08,6.07,14.17,14.17,0,0,1-5.88,3.18,35.71,35.71,0,0,1-8.87,1.64q-4.72.29-12.82,0.29-8.87,0-26.21-1l-1.54-23.9q15.42,1,22.16,1,5.39,0,6.36-.87t1-5.88V435.86H241.14l11.37,9.25a235.65,235.65,0,0,1-41.43,39.31l-17.92-18.89a243.49,243.49,0,0,0,33.34-29.68H207.8V421q-5.4,3.08-8.29,4.63l-11-24.86q8.48-4.43,18.89-10.6-6.55-8.09-14.07-16.38l8.87-7.32Zm42.59,24.28q-1.35-1.54-5.78-6.75t-6.94-7.9q-4.63,3.86-7.52,6,2.12,2.31,6.36,7.32l6.36,7.52A84,84,0,0,0,232.85,371.88ZM244.8,395a238.5,238.5,0,0,1-22.16,17H339.42a223.19,223.19,0,0,1-22.16-18.31v8.87H244.8V395Zm3.28-38.35a123.89,123.89,0,0,0,9.83-13.3H236.51q1.73,1.93,3.66,4.14t4.24,4.91Q246.72,355.11,248.07,356.65Zm14.07,22h40.66a219.23,219.23,0,0,1-19.66-26A204.52,204.52,0,0,1,262.14,378.62Zm57.24-18.12a165.9,165.9,0,0,0,12.91-17H307A119.23,119.23,0,0,0,319.38,360.51Z" transform="translate(-4.89 -3.2)"/><path class="cls-2" d="M384.36,318.69h30.26q-1.73,25.44-2.12,38.54l0.39,0.19q18.31-28.52,46.06-28.52,24.67,0,38.35,16.67T511,394.81q0,84.6-104.26,86.34l-2.51-27.94q39.31-.77,57.14-14.74t17.83-43.65q0-36.42-23.32-36.42-16,0-28.81,17.15T411,422l-29.49.77Q381.47,369.76,384.36,318.69Z" transform="translate(-4.89 -3.2)"/><path class="cls-2" d="M195.05,195.55h2.64v25.88h53.07v2.51H197.69a79.9,79.9,0,0,0,14.72,46.47q14.72,21.26,40.07,32.61l-1.06,2.38a98.18,98.18,0,0,1-36.77-27.53,84.2,84.2,0,0,1-18.28-39.28,84.21,84.21,0,0,1-18.28,39.28,98.2,98.2,0,0,1-36.77,27.53L140.26,303q25.35-11.35,40.07-32.61a79.92,79.92,0,0,0,14.72-46.47H142v-2.51h53.07V195.55Z" transform="translate(-4.89 -3.2)"/><path class="cls-2" d="M305.16,266a36.39,36.39,0,0,0-2.77-14.59q-2.77-6.4-10.56-15.78a186,186,0,0,0,17-33.67H279.28V308h-2.64V199.38h35V202A192,192,0,0,1,295,235.55q7.26,9.24,10,15.64A37.94,37.94,0,0,1,307.67,266q0,7.79-3.7,11.35T292.22,281h-6.47v-2.64h6.47q7,0,10-2.77T305.16,266Zm23.24-27.46,2.51-.79q8.32,24.56,21.65,40.27,17.29-18.35,26.27-45H319.94v6.47q0,39.48-15,66.67l-2.24-1.32q14.78-26.93,14.79-65.35V200.7h67.2v2.64H319.94V230.4h61.52V233q-9.11,27.86-27.2,47,13.47,15.05,34.19,24.29l-1.06,2.38q-21-9.38-34.85-24.82A109.3,109.3,0,0,1,314,306.71l-0.92-2.38a104,104,0,0,0,37.76-24.42Q336.71,263.54,328.39,238.59Z" transform="translate(-4.89 -3.2)"/><path class="cls-2" d="M398.16,305.92a1,1,0,0,1-1.54.64c-2.26-1.23-3.15-3.16-3.15-7,0-8.58,1.54-21.88,3-27.52,0.24-.9.76-1.08,1.29-0.52,1.27,1.34,1.82,3.24,1.22,7.72-0.65,5.22-1.67,12.78-2.22,20.91a275.61,275.61,0,0,1,12.71-30.38,0.78,0.78,0,0,1,1.35-.25c1.43,1.3,2,2.58,1.61,7-0.55,5.43-1.29,12.47-1.53,20.7C414.26,287,421.46,270.9,425,264.79c0.49-.79,1.05-0.81,1.33-0.08,0.75,1.8.59,4.26-1.31,8.47-2.72,6-8.36,17.71-12.54,29.15-0.28.74-.7,1.12-1.54,0.64-2.2-1.24-3.29-3-3.36-7a145.3,145.3,0,0,1,1-15.9C405.23,287.5,401,297.65,398.16,305.92Z" transform="translate(-4.89 -3.2)"/><path class="cls-2" d="M438.84,274.22c0.32-.81.72-1,1.21-0.62,1,0.78,2,3,1.32,5.95-0.62,2.68-2.37,7.31-3,10.44-0.65,3.31-.17,5.62,1.63,5.09,2.17-.61,4.27-4.93,5.29-9.05,0.16-.54.52-0.68,0.84-0.25a4.93,4.93,0,0,1,.28,3.43c-0.71,3.26-3.4,7-6.38,7.5s-4.82-.86-5.4-3.37c-1.21,2.59-3.16,5.12-5.72,5.72-5,1.15-7.56-5.41-4.61-12.91,2.88-7.31,6.55-10.7,9.22-11.31,2.3-.53,3.78,1,4.15,3.1A38.85,38.85,0,0,1,438.84,274.22Zm-3.77,3.18c-1.75.24-4.85,4.61-6.69,10.05-1.77,5.25-1.38,10.12.72,9.7s4.2-4.52,5.84-9.86C436.94,280.63,436.65,277.2,435.06,277.4Z" transform="translate(-4.89 -3.2)"/><path class="cls-2" d="M451.33,274.15a6,6,0,0,1,1-4.56c0.93-1.34,2.11-1.84,2.7-1.47s0.53,1.06.12,2.45c-0.14.37-.23,0.73-0.35,1.15,0.76,5,2.74,8.95,3.43,12.67,0.37,2.11.52,4.45-1.11,6.17,3.28-2.17,4.78-5.9,5.45-9.09a0.54,0.54,0,0,1,1-.23,5,5,0,0,1,.07,3.7,11.57,11.57,0,0,1-8.11,8.07c-3.08.82-6.26,0.71-8.84-2.18-1.84-2.11-2.49-5.68-1-7.6,0.52-.68,1-0.57,1.25.28,0.15,0.42.25,0.84,0.4,1.26A108.49,108.49,0,0,0,451.33,274.15Zm-2.88,13.4c1.52,2.92,3.58,4.75,5.22,3.81,2.29-1.32-.45-9.53-1.66-13.76A96.7,96.7,0,0,1,448.45,287.55Z" transform="translate(-4.89 -3.2)"/><path class="cls-2" d="M468.36,270.22a5.94,5.94,0,0,1,1-4.56c0.93-1.34,2.11-1.84,2.7-1.47s0.53,1.06.12,2.45c-0.14.37-.23,0.73-0.35,1.15,0.76,5,2.74,8.95,3.43,12.68,0.37,2.11.52,4.45-1.11,6.17,3.28-2.17,4.78-5.9,5.45-9.09a0.54,0.54,0,0,1,1-.23,5,5,0,0,1,.07,3.7,11.57,11.57,0,0,1-8.11,8.07c-3.08.82-6.26,0.71-8.84-2.19-1.84-2.11-2.49-5.68-1-7.6,0.52-.68,1-0.57,1.25.28,0.15,0.42.25,0.84,0.4,1.26A108.6,108.6,0,0,0,468.36,270.22Zm-2.88,13.4c1.52,2.92,3.58,4.75,5.22,3.81,2.29-1.32-.45-9.53-1.66-13.76A96.89,96.89,0,0,1,465.48,283.62Z" transform="translate(-4.89 -3.2)"/><path class="cls-2" d="M495.27,283.84c-4.49,1-6.37-2-5.84-7,0.57-5.6,3.94-12.23,3-12.52s-5.84,4.73-7.77,10.53a72,72,0,0,0-2.84,11.36c-0.1.53-.45,0.73-0.86,0.42-1.08-.77-1.91-2.15-1.52-5.62,0.64-5.78,7.42-27.18,10.5-33.59,0.33-.75.88-0.82,1.3-0.24,1.05,1.39,1.51,4.1.26,7.94-0.79,2.44-2.62,7.42-4.1,11.54,1.7-2.65,4.07-5.05,5.55-5.23,1.87-.21,4.14,2.09,3.38,5.13-0.63,2.63-2.3,7.13-2.89,10.19-0.62,3.41.23,5.86,2.18,5.3,2.17-.61,4.22-5.14,5.09-9a0.53,0.53,0,0,1,1-.28c0.4,0.53.66,1.65,0.23,3.44C501.07,279.68,498.43,283.11,495.27,283.84Z" transform="translate(-4.89 -3.2)"/><path class="cls-2" d="M532.67,269.4c-0.86,3.58-3.73,6.78-6.74,7.42-4.08.89-5.83-2.32-5.35-7,0.19-1.62.55-3.73,1-5.87a7.52,7.52,0,0,1-4.67,2.49c0,4.79-2.12,11.08-5.83,13.29a5.87,5.87,0,0,1-7.26-.69c-3.08-2.61-3.37-7.51-1.92-12.24,1.3-4.13,3.75-7.91,6.9-8.92a3.53,3.53,0,0,1,4.1.91c1.57,1.44,3.25,1.39,3.87,5.3a5.42,5.42,0,0,1,.1.94c3.32-.77,5.67-5,7.49-9.79,0.31-.86.72-1,1.26-0.63,1,0.67,1.91,2.88,1.29,5.84-0.53,2.6-2,6.82-2.49,9.7-0.62,3.41,0,5.53,1.72,5,2.33-.65,4.51-4.87,5.25-9,0.1-.53.53-0.63,0.91-0.21A4.29,4.29,0,0,1,532.67,269.4ZM508.59,262a19.62,19.62,0,0,0-3,6c-1.32,4.53-1,9.69.69,10.55s4.6-1.79,6.06-7.2a35.45,35.45,0,0,0,1-5A6.68,6.68,0,0,1,508.59,262Zm4.17-1c-0.56-1.68-1.66-1.08-1.57.53a4.2,4.2,0,0,0,2.11,3.29A9.87,9.87,0,0,0,512.76,261Zm12.65-12.1c0.65-1.11,2.4-.84,3.39.51a3.41,3.41,0,0,1,.43,3.56c-0.46,1-2,1.14-3.13-.12A3.41,3.41,0,0,1,525.41,248.93Z" transform="translate(-4.89 -3.2)"/><path class="cls-2" d="M538.2,273.7c-0.46,1-2.08,1-3.12-.07a3.34,3.34,0,0,1-.63-4c0.6-1,2.29-.81,3.33.53A3.54,3.54,0,0,1,538.2,273.7Zm6-36.61c1,1.34,1.54,4,.26,8.45-1.72,6-4.28,15.41-5.63,22-0.14.6-.33,0.75-0.86,0.42-1-.67-1.94-2.31-1.51-5.79a134.81,134.81,0,0,1,6.38-24.86C543.14,236.55,543.73,236.42,544.23,237.09Z" transform="translate(-4.89 -3.2)"/><path class="cls-2" d="M551.44,270.65c-0.46.95-2.08,1-3.11-.07a3.34,3.34,0,0,1-.63-4c0.6-1,2.29-.81,3.33.53A3.54,3.54,0,0,1,551.44,270.65Zm6-36.61c1,1.34,1.54,4,.26,8.45-1.72,6-4.28,15.41-5.63,22-0.14.6-.33,0.75-0.86,0.42-1-.67-1.94-2.31-1.51-5.79a134.76,134.76,0,0,1,6.38-24.86C556.38,233.5,557,233.36,557.47,234Z" transform="translate(-4.89 -3.2)"/><path class="cls-1" d="M106.92,40.11q-26,0-41,15.6T51,99q0,27.24,15.6,43.08T106.92,158q21.54,0,42.58-13.62L161.38,175Q136.62,191.88,103,191.87q-43.08,0-69.07-25T7.89,99Q7.89,55.71,33.14,31T103,6.2q33.67,0,58.43,16.83L149.5,53.73Q128.45,40.12,106.92,40.11Z" transform="translate(-4.89 -3.2)"/><path class="cls-1" d="M320.46,66.36H320l-27.23,123H249.66l-27.23-123h-0.5l-10.4,123h-40.6L193,8.67h50.26l28.22,133.69h0.5L300.16,8.67h50.26l22,180.72H330.86Z" transform="translate(-4.89 -3.2)"/><path class="cls-1" d="M501,50.76a110.26,110.26,0,0,0-49.51-11.64q-12.87,0-19.56,5a15.78,15.78,0,0,0-6.68,13.37q0,13.87,20.8,19.81Q483,87.4,497.94,101.51t15,36.39q0,26.24-17.82,40.11t-52.73,13.86A117.5,117.5,0,0,1,409.93,187q-16.84-4.83-28.22-12.5l9.9-32.93q25.25,17.33,52.48,17.33,12.87,0,19.43-5.32t6.56-15a16.78,16.78,0,0,0-5.32-12.87q-5.33-5-18.69-8.91-33.92-9.9-48.65-24.14T382.7,57.44q0-23.52,17.58-37.38T449.79,6.2Q484,6.2,509,18.08Z" transform="translate(-4.89 -3.2)"/><path class="cls-1" d="M14.09,342.2V318.3H182.14v23.9H109.68q-0.39,1-.87,2.6t-0.67,2.41h63.6v73.23H90.6l-5.78,5.2h77.09v17.73q-10.41,9.25-26.79,17.34a427.6,427.6,0,0,0,48.57,4.63l-7.13,22.55Q134,485.58,98.7,474.6q-34.11,9.64-79,13.3l-7.13-22.55q30.25-1.73,51.26-4.82a118.86,118.86,0,0,1-14.26-8.67l8.29-8.48H57.45A201.34,201.34,0,0,1,20.84,458L10,437a228.2,228.2,0,0,0,45.29-16.57H24.5V347.21H76.92a15.84,15.84,0,0,0,.87-2.41q0.48-1.64.67-2.6H14.09Zm41.24,26.6H140.9v-5H55.33v5Zm0,13.49v5H140.9v-5H55.33ZM140.9,405.8v-5H55.33v5H140.9ZM100.43,453.2q16.57-4.62,26.79-9.83H74A177.73,177.73,0,0,0,100.43,453.2Z" transform="translate(-4.89 -3.2)"/><path class="cls-1" d="M190.26,347.59q24.47-17.34,38.93-36.62l19.66,11.76h18.89a67.36,67.36,0,0,1-2.51-6.74l27.17-3.28a177.58,177.58,0,0,0,11.95,26.21V321.19h56.47v22.36a196.92,196.92,0,0,1-23.7,33.92Q351.18,388.84,372,400l-11,25.63q-4.63-2.5-8.29-4.82v15H335q18.69,16.77,32.38,31l-18.89,18.5q-22.74-23.13-41.82-39.32l10.41-10.21H299.14V453.4q0,8.29-.29,13.11a37.18,37.18,0,0,1-1.64,9.06,16,16,0,0,1-3.08,6.07,14.17,14.17,0,0,1-5.88,3.18,35.71,35.71,0,0,1-8.87,1.64q-4.72.29-12.82,0.29-8.87,0-26.21-1l-1.54-23.9q15.42,1,22.16,1,5.39,0,6.36-.87t1-5.88V435.86H241.14l11.37,9.25a235.65,235.65,0,0,1-41.43,39.31l-17.92-18.89a243.49,243.49,0,0,0,33.34-29.68H207.8V421q-5.4,3.08-8.29,4.63l-11-24.86q8.48-4.43,18.89-10.6-6.55-8.09-14.07-16.38l8.87-7.32Zm42.59,24.28q-1.35-1.54-5.78-6.75t-6.94-7.9q-4.63,3.86-7.52,6,2.12,2.31,6.36,7.32l6.36,7.52A84,84,0,0,0,232.85,371.88ZM244.8,395a238.5,238.5,0,0,1-22.16,17H339.42a223.19,223.19,0,0,1-22.16-18.31v8.87H244.8V395Zm3.28-38.35a123.89,123.89,0,0,0,9.83-13.3H236.51q1.73,1.93,3.66,4.14t4.24,4.91Q246.72,355.11,248.07,356.65Zm14.07,22h40.66a219.23,219.23,0,0,1-19.66-26A204.52,204.52,0,0,1,262.14,378.62Zm57.24-18.12a165.9,165.9,0,0,0,12.91-17H307A119.23,119.23,0,0,0,319.38,360.51Z" transform="translate(-4.89 -3.2)"/><path class="cls-1" d="M384.36,318.69h30.26q-1.73,25.44-2.12,38.54l0.39,0.19q18.31-28.52,46.06-28.52,24.67,0,38.35,16.67T511,394.81q0,84.6-104.26,86.34l-2.51-27.94q39.31-.77,57.14-14.74t17.83-43.65q0-36.42-23.32-36.42-16,0-28.81,17.15T411,422l-29.49.77Q381.47,369.76,384.36,318.69Z" transform="translate(-4.89 -3.2)"/><path class="cls-1" d="M195.05,195.55h2.64v25.88h53.07v2.51H197.69a79.9,79.9,0,0,0,14.72,46.47q14.72,21.26,40.07,32.61l-1.06,2.38a98.18,98.18,0,0,1-36.77-27.53,84.2,84.2,0,0,1-18.28-39.28,84.21,84.21,0,0,1-18.28,39.28,98.2,98.2,0,0,1-36.77,27.53L140.26,303q25.35-11.35,40.07-32.61a79.92,79.92,0,0,0,14.72-46.47H142v-2.51h53.07V195.55Z" transform="translate(-4.89 -3.2)"/><path class="cls-1" d="M305.16,266a36.39,36.39,0,0,0-2.77-14.59q-2.77-6.4-10.56-15.78a186,186,0,0,0,17-33.67H279.28V308h-2.64V199.38h35V202A192,192,0,0,1,295,235.55q7.26,9.24,10,15.64A37.94,37.94,0,0,1,307.67,266q0,7.79-3.7,11.35T292.22,281h-6.47v-2.64h6.47q7,0,10-2.77T305.16,266Zm23.24-27.46,2.51-.79q8.32,24.56,21.65,40.27,17.29-18.35,26.27-45H319.94v6.47q0,39.48-15,66.67l-2.24-1.32q14.78-26.93,14.79-65.35V200.7h67.2v2.64H319.94V230.4h61.52V233q-9.11,27.86-27.2,47,13.47,15.05,34.19,24.29l-1.06,2.38q-21-9.38-34.85-24.82A109.3,109.3,0,0,1,314,306.71l-0.92-2.38a104,104,0,0,0,37.76-24.42Q336.71,263.54,328.39,238.59Z" transform="translate(-4.89 -3.2)"/><path class="cls-1" d="M398.16,305.92a1,1,0,0,1-1.54.64c-2.26-1.23-3.15-3.16-3.15-7,0-8.58,1.54-21.88,3-27.52,0.24-.9.76-1.08,1.29-0.52,1.27,1.34,1.82,3.24,1.22,7.72-0.65,5.22-1.67,12.78-2.22,20.91a275.61,275.61,0,0,1,12.71-30.38,0.78,0.78,0,0,1,1.35-.25c1.43,1.3,2,2.58,1.61,7-0.55,5.43-1.29,12.47-1.53,20.7C414.26,287,421.46,270.9,425,264.79c0.49-.79,1.05-0.81,1.33-0.08,0.75,1.8.59,4.26-1.31,8.47-2.72,6-8.36,17.71-12.54,29.15-0.28.74-.7,1.12-1.54,0.64-2.2-1.24-3.29-3-3.36-7a145.3,145.3,0,0,1,1-15.9C405.23,287.5,401,297.65,398.16,305.92Z" transform="translate(-4.89 -3.2)"/><path class="cls-1" d="M438.84,274.22c0.32-.81.72-1,1.21-0.62,1,0.78,2,3,1.32,5.95-0.62,2.68-2.37,7.31-3,10.44-0.65,3.31-.17,5.62,1.63,5.09,2.17-.61,4.27-4.93,5.29-9.05,0.16-.54.52-0.68,0.84-0.25a4.93,4.93,0,0,1,.28,3.43c-0.71,3.26-3.4,7-6.38,7.5s-4.82-.86-5.4-3.37c-1.21,2.59-3.16,5.12-5.72,5.72-5,1.15-7.56-5.41-4.61-12.91,2.88-7.31,6.55-10.7,9.22-11.31,2.3-.53,3.78,1,4.15,3.1A38.85,38.85,0,0,1,438.84,274.22Zm-3.77,3.18c-1.75.24-4.85,4.61-6.69,10.05-1.77,5.25-1.38,10.12.72,9.7s4.2-4.52,5.84-9.86C436.94,280.63,436.65,277.2,435.06,277.4Z" transform="translate(-4.89 -3.2)"/><path class="cls-1" d="M451.33,274.15a6,6,0,0,1,1-4.56c0.93-1.34,2.11-1.84,2.7-1.47s0.53,1.06.12,2.45c-0.14.37-.23,0.73-0.35,1.15,0.76,5,2.74,8.95,3.43,12.67,0.37,2.11.52,4.45-1.11,6.17,3.28-2.17,4.78-5.9,5.45-9.09a0.54,0.54,0,0,1,1-.23,5,5,0,0,1,.07,3.7,11.57,11.57,0,0,1-8.11,8.07c-3.08.82-6.26,0.71-8.84-2.18-1.84-2.11-2.49-5.68-1-7.6,0.52-.68,1-0.57,1.25.28,0.15,0.42.25,0.84,0.4,1.26A108.49,108.49,0,0,0,451.33,274.15Zm-2.88,13.4c1.52,2.92,3.58,4.75,5.22,3.81,2.29-1.32-.45-9.53-1.66-13.76A96.7,96.7,0,0,1,448.45,287.55Z" transform="translate(-4.89 -3.2)"/><path class="cls-1" d="M468.36,270.22a5.94,5.94,0,0,1,1-4.56c0.93-1.34,2.11-1.84,2.7-1.47s0.53,1.06.12,2.45c-0.14.37-.23,0.73-0.35,1.15,0.76,5,2.74,8.95,3.43,12.68,0.37,2.11.52,4.45-1.11,6.17,3.28-2.17,4.78-5.9,5.45-9.09a0.54,0.54,0,0,1,1-.23,5,5,0,0,1,.07,3.7,11.57,11.57,0,0,1-8.11,8.07c-3.08.82-6.26,0.71-8.84-2.19-1.84-2.11-2.49-5.68-1-7.6,0.52-.68,1-0.57,1.25.28,0.15,0.42.25,0.84,0.4,1.26A108.6,108.6,0,0,0,468.36,270.22Zm-2.88,13.4c1.52,2.92,3.58,4.75,5.22,3.81,2.29-1.32-.45-9.53-1.66-13.76A96.89,96.89,0,0,1,465.48,283.62Z" transform="translate(-4.89 -3.2)"/><path class="cls-1" d="M495.27,283.84c-4.49,1-6.37-2-5.84-7,0.57-5.6,3.94-12.23,3-12.52s-5.84,4.73-7.77,10.53a72,72,0,0,0-2.84,11.36c-0.1.53-.45,0.73-0.86,0.42-1.08-.77-1.91-2.15-1.52-5.62,0.64-5.78,7.42-27.18,10.5-33.59,0.33-.75.88-0.82,1.3-0.24,1.05,1.39,1.51,4.1.26,7.94-0.79,2.44-2.62,7.42-4.1,11.54,1.7-2.65,4.07-5.05,5.55-5.23,1.87-.21,4.14,2.09,3.38,5.13-0.63,2.63-2.3,7.13-2.89,10.19-0.62,3.41.23,5.86,2.18,5.3,2.17-.61,4.22-5.14,5.09-9a0.53,0.53,0,0,1,1-.28c0.4,0.53.66,1.65,0.23,3.44C501.07,279.68,498.43,283.11,495.27,283.84Z" transform="translate(-4.89 -3.2)"/><path class="cls-1" d="M532.67,269.4c-0.86,3.58-3.73,6.78-6.74,7.42-4.08.89-5.83-2.32-5.35-7,0.19-1.62.55-3.73,1-5.87a7.52,7.52,0,0,1-4.67,2.49c0,4.79-2.12,11.08-5.83,13.29a5.87,5.87,0,0,1-7.26-.69c-3.08-2.61-3.37-7.51-1.92-12.24,1.3-4.13,3.75-7.91,6.9-8.92a3.53,3.53,0,0,1,4.1.91c1.57,1.44,3.25,1.39,3.87,5.3a5.42,5.42,0,0,1,.1.94c3.32-.77,5.67-5,7.49-9.79,0.31-.86.72-1,1.26-0.63,1,0.67,1.91,2.88,1.29,5.84-0.53,2.6-2,6.82-2.49,9.7-0.62,3.41,0,5.53,1.72,5,2.33-.65,4.51-4.87,5.25-9,0.1-.53.53-0.63,0.91-0.21A4.29,4.29,0,0,1,532.67,269.4ZM508.59,262a19.62,19.62,0,0,0-3,6c-1.32,4.53-1,9.69.69,10.55s4.6-1.79,6.06-7.2a35.45,35.45,0,0,0,1-5A6.68,6.68,0,0,1,508.59,262Zm4.17-1c-0.56-1.68-1.66-1.08-1.57.53a4.2,4.2,0,0,0,2.11,3.29A9.87,9.87,0,0,0,512.76,261Zm12.65-12.1c0.65-1.11,2.4-.84,3.39.51a3.41,3.41,0,0,1,.43,3.56c-0.46,1-2,1.14-3.13-.12A3.41,3.41,0,0,1,525.41,248.93Z" transform="translate(-4.89 -3.2)"/><path class="cls-1" d="M538.2,273.7c-0.46,1-2.08,1-3.12-.07a3.34,3.34,0,0,1-.63-4c0.6-1,2.29-.81,3.33.53A3.54,3.54,0,0,1,538.2,273.7Zm6-36.61c1,1.34,1.54,4,.26,8.45-1.72,6-4.28,15.41-5.63,22-0.14.6-.33,0.75-0.86,0.42-1-.67-1.94-2.31-1.51-5.79a134.81,134.81,0,0,1,6.38-24.86C543.14,236.55,543.73,236.42,544.23,237.09Z" transform="translate(-4.89 -3.2)"/><path class="cls-1" d="M551.44,270.65c-0.46.95-2.08,1-3.11-.07a3.34,3.34,0,0,1-.63-4c0.6-1,2.29-.81,3.33.53A3.54,3.54,0,0,1,551.44,270.65Zm6-36.61c1,1.34,1.54,4,.26,8.45-1.72,6-4.28,15.41-5.63,22-0.14.6-.33,0.75-0.86,0.42-1-.67-1.94-2.31-1.51-5.79a134.76,134.76,0,0,1,6.38-24.86C556.38,233.5,557,233.36,557.47,234Z" transform="translate(-4.89 -3.2)"/><path class="cls-2" d="M106.92,40.11q-26,0-41,15.6T51,99q0,27.24,15.6,43.08T106.92,158q21.54,0,42.58-13.62L161.38,175Q136.62,191.88,103,191.87q-43.08,0-69.07-25T7.89,99Q7.89,55.71,33.14,31T103,6.2q33.67,0,58.43,16.83L149.5,53.73Q128.45,40.12,106.92,40.11Z" transform="translate(-4.89 -3.2)"/><path class="cls-2" d="M320.46,66.36H320l-27.23,123H249.66l-27.23-123h-0.5l-10.4,123h-40.6L193,8.67h50.26l28.22,133.69h0.5L300.16,8.67h50.26l22,180.72H330.86Z" transform="translate(-4.89 -3.2)"/><path class="cls-2" d="M501,50.76a110.26,110.26,0,0,0-49.51-11.64q-12.87,0-19.56,5a15.78,15.78,0,0,0-6.68,13.37q0,13.87,20.8,19.81Q483,87.4,497.94,101.51t15,36.39q0,26.24-17.82,40.11t-52.73,13.86A117.5,117.5,0,0,1,409.93,187q-16.84-4.83-28.22-12.5l9.9-32.93q25.25,17.33,52.48,17.33,12.87,0,19.43-5.32t6.56-15a16.78,16.78,0,0,0-5.32-12.87q-5.33-5-18.69-8.91-33.92-9.9-48.65-24.14T382.7,57.44q0-23.52,17.58-37.38T449.79,6.2Q484,6.2,509,18.08Z" transform="translate(-4.89 -3.2)"/><path class="cls-2" d="M14.09,342.2V318.3H182.14v23.9H109.68q-0.39,1-.87,2.6t-0.67,2.41h63.6v73.23H90.6l-5.78,5.2h77.09v17.73q-10.41,9.25-26.79,17.34a427.6,427.6,0,0,0,48.57,4.63l-7.13,22.55Q134,485.58,98.7,474.6q-34.11,9.64-79,13.3l-7.13-22.55q30.25-1.73,51.26-4.82a118.86,118.86,0,0,1-14.26-8.67l8.29-8.48H57.45A201.34,201.34,0,0,1,20.84,458L10,437a228.2,228.2,0,0,0,45.29-16.57H24.5V347.21H76.92a15.84,15.84,0,0,0,.87-2.41q0.48-1.64.67-2.6H14.09Zm41.24,26.6H140.9v-5H55.33v5Zm0,13.49v5H140.9v-5H55.33ZM140.9,405.8v-5H55.33v5H140.9ZM100.43,453.2q16.57-4.62,26.79-9.83H74A177.73,177.73,0,0,0,100.43,453.2Z" transform="translate(-4.89 -3.2)"/><path class="cls-2" d="M190.26,347.59q24.47-17.34,38.93-36.62l19.66,11.76h18.89a67.36,67.36,0,0,1-2.51-6.74l27.17-3.28a177.58,177.58,0,0,0,11.95,26.21V321.19h56.47v22.36a196.92,196.92,0,0,1-23.7,33.92Q351.18,388.84,372,400l-11,25.63q-4.63-2.5-8.29-4.82v15H335q18.69,16.77,32.38,31l-18.89,18.5q-22.74-23.13-41.82-39.32l10.41-10.21H299.14V453.4q0,8.29-.29,13.11a37.18,37.18,0,0,1-1.64,9.06,16,16,0,0,1-3.08,6.07,14.17,14.17,0,0,1-5.88,3.18,35.71,35.71,0,0,1-8.87,1.64q-4.72.29-12.82,0.29-8.87,0-26.21-1l-1.54-23.9q15.42,1,22.16,1,5.39,0,6.36-.87t1-5.88V435.86H241.14l11.37,9.25a235.65,235.65,0,0,1-41.43,39.31l-17.92-18.89a243.49,243.49,0,0,0,33.34-29.68H207.8V421q-5.4,3.08-8.29,4.63l-11-24.86q8.48-4.43,18.89-10.6-6.55-8.09-14.07-16.38l8.87-7.32Zm42.59,24.28q-1.35-1.54-5.78-6.75t-6.94-7.9q-4.63,3.86-7.52,6,2.12,2.31,6.36,7.32l6.36,7.52A84,84,0,0,0,232.85,371.88ZM244.8,395a238.5,238.5,0,0,1-22.16,17H339.42a223.19,223.19,0,0,1-22.16-18.31v8.87H244.8V395Zm3.28-38.35a123.89,123.89,0,0,0,9.83-13.3H236.51q1.73,1.93,3.66,4.14t4.24,4.91Q246.72,355.11,248.07,356.65Zm14.07,22h40.66a219.23,219.23,0,0,1-19.66-26A204.52,204.52,0,0,1,262.14,378.62Zm57.24-18.12a165.9,165.9,0,0,0,12.91-17H307A119.23,119.23,0,0,0,319.38,360.51Z" transform="translate(-4.89 -3.2)"/><path class="cls-2" d="M384.36,318.69h30.26q-1.73,25.44-2.12,38.54l0.39,0.19q18.31-28.52,46.06-28.52,24.67,0,38.35,16.67T511,394.81q0,84.6-104.26,86.34l-2.51-27.94q39.31-.77,57.14-14.74t17.83-43.65q0-36.42-23.32-36.42-16,0-28.81,17.15T411,422l-29.49.77Q381.47,369.76,384.36,318.69Z" transform="translate(-4.89 -3.2)"/><path class="cls-2" d="M195.05,195.55h2.64v25.88h53.07v2.51H197.69a79.9,79.9,0,0,0,14.72,46.47q14.72,21.26,40.07,32.61l-1.06,2.38a98.18,98.18,0,0,1-36.77-27.53,84.2,84.2,0,0,1-18.28-39.28,84.21,84.21,0,0,1-18.28,39.28,98.2,98.2,0,0,1-36.77,27.53L140.26,303q25.35-11.35,40.07-32.61a79.92,79.92,0,0,0,14.72-46.47H142v-2.51h53.07V195.55Z" transform="translate(-4.89 -3.2)"/><path class="cls-2" d="M305.16,266a36.39,36.39,0,0,0-2.77-14.59q-2.77-6.4-10.56-15.78a186,186,0,0,0,17-33.67H279.28V308h-2.64V199.38h35V202A192,192,0,0,1,295,235.55q7.26,9.24,10,15.64A37.94,37.94,0,0,1,307.67,266q0,7.79-3.7,11.35T292.22,281h-6.47v-2.64h6.47q7,0,10-2.77T305.16,266Zm23.24-27.46,2.51-.79q8.32,24.56,21.65,40.27,17.29-18.35,26.27-45H319.94v6.47q0,39.48-15,66.67l-2.24-1.32q14.78-26.93,14.79-65.35V200.7h67.2v2.64H319.94V230.4h61.52V233q-9.11,27.86-27.2,47,13.47,15.05,34.19,24.29l-1.06,2.38q-21-9.38-34.85-24.82A109.3,109.3,0,0,1,314,306.71l-0.92-2.38a104,104,0,0,0,37.76-24.42Q336.71,263.54,328.39,238.59Z" transform="translate(-4.89 -3.2)"/><path class="cls-2" d="M398.16,305.92a1,1,0,0,1-1.54.64c-2.26-1.23-3.15-3.16-3.15-7,0-8.58,1.54-21.88,3-27.52,0.24-.9.76-1.08,1.29-0.52,1.27,1.34,1.82,3.24,1.22,7.72-0.65,5.22-1.67,12.78-2.22,20.91a275.61,275.61,0,0,1,12.71-30.38,0.78,0.78,0,0,1,1.35-.25c1.43,1.3,2,2.58,1.61,7-0.55,5.43-1.29,12.47-1.53,20.7C414.26,287,421.46,270.9,425,264.79c0.49-.79,1.05-0.81,1.33-0.08,0.75,1.8.59,4.26-1.31,8.47-2.72,6-8.36,17.71-12.54,29.15-0.28.74-.7,1.12-1.54,0.64-2.2-1.24-3.29-3-3.36-7a145.3,145.3,0,0,1,1-15.9C405.23,287.5,401,297.65,398.16,305.92Z" transform="translate(-4.89 -3.2)"/><path class="cls-2" d="M438.84,274.22c0.32-.81.72-1,1.21-0.62,1,0.78,2,3,1.32,5.95-0.62,2.68-2.37,7.31-3,10.44-0.65,3.31-.17,5.62,1.63,5.09,2.17-.61,4.27-4.93,5.29-9.05,0.16-.54.52-0.68,0.84-0.25a4.93,4.93,0,0,1,.28,3.43c-0.71,3.26-3.4,7-6.38,7.5s-4.82-.86-5.4-3.37c-1.21,2.59-3.16,5.12-5.72,5.72-5,1.15-7.56-5.41-4.61-12.91,2.88-7.31,6.55-10.7,9.22-11.31,2.3-.53,3.78,1,4.15,3.1A38.85,38.85,0,0,1,438.84,274.22Zm-3.77,3.18c-1.75.24-4.85,4.61-6.69,10.05-1.77,5.25-1.38,10.12.72,9.7s4.2-4.52,5.84-9.86C436.94,280.63,436.65,277.2,435.06,277.4Z" transform="translate(-4.89 -3.2)"/><path class="cls-2" d="M451.33,274.15a6,6,0,0,1,1-4.56c0.93-1.34,2.11-1.84,2.7-1.47s0.53,1.06.12,2.45c-0.14.37-.23,0.73-0.35,1.15,0.76,5,2.74,8.95,3.43,12.67,0.37,2.11.52,4.45-1.11,6.17,3.28-2.17,4.78-5.9,5.45-9.09a0.54,0.54,0,0,1,1-.23,5,5,0,0,1,.07,3.7,11.57,11.57,0,0,1-8.11,8.07c-3.08.82-6.26,0.71-8.84-2.18-1.84-2.11-2.49-5.68-1-7.6,0.52-.68,1-0.57,1.25.28,0.15,0.42.25,0.84,0.4,1.26A108.49,108.49,0,0,0,451.33,274.15Zm-2.88,13.4c1.52,2.92,3.58,4.75,5.22,3.81,2.29-1.32-.45-9.53-1.66-13.76A96.7,96.7,0,0,1,448.45,287.55Z" transform="translate(-4.89 -3.2)"/><path class="cls-2" d="M468.36,270.22a5.94,5.94,0,0,1,1-4.56c0.93-1.34,2.11-1.84,2.7-1.47s0.53,1.06.12,2.45c-0.14.37-.23,0.73-0.35,1.15,0.76,5,2.74,8.95,3.43,12.68,0.37,2.11.52,4.45-1.11,6.17,3.28-2.17,4.78-5.9,5.45-9.09a0.54,0.54,0,0,1,1-.23,5,5,0,0,1,.07,3.7,11.57,11.57,0,0,1-8.11,8.07c-3.08.82-6.26,0.71-8.84-2.19-1.84-2.11-2.49-5.68-1-7.6,0.52-.68,1-0.57,1.25.28,0.15,0.42.25,0.84,0.4,1.26A108.6,108.6,0,0,0,468.36,270.22Zm-2.88,13.4c1.52,2.92,3.58,4.75,5.22,3.81,2.29-1.32-.45-9.53-1.66-13.76A96.89,96.89,0,0,1,465.48,283.62Z" transform="translate(-4.89 -3.2)"/><path class="cls-2" d="M495.27,283.84c-4.49,1-6.37-2-5.84-7,0.57-5.6,3.94-12.23,3-12.52s-5.84,4.73-7.77,10.53a72,72,0,0,0-2.84,11.36c-0.1.53-.45,0.73-0.86,0.42-1.08-.77-1.91-2.15-1.52-5.62,0.64-5.78,7.42-27.18,10.5-33.59,0.33-.75.88-0.82,1.3-0.24,1.05,1.39,1.51,4.1.26,7.94-0.79,2.44-2.62,7.42-4.1,11.54,1.7-2.65,4.07-5.05,5.55-5.23,1.87-.21,4.14,2.09,3.38,5.13-0.63,2.63-2.3,7.13-2.89,10.19-0.62,3.41.23,5.86,2.18,5.3,2.17-.61,4.22-5.14,5.09-9a0.53,0.53,0,0,1,1-.28c0.4,0.53.66,1.65,0.23,3.44C501.07,279.68,498.43,283.11,495.27,283.84Z" transform="translate(-4.89 -3.2)"/><path class="cls-2" d="M532.67,269.4c-0.86,3.58-3.73,6.78-6.74,7.42-4.08.89-5.83-2.32-5.35-7,0.19-1.62.55-3.73,1-5.87a7.52,7.52,0,0,1-4.67,2.49c0,4.79-2.12,11.08-5.83,13.29a5.87,5.87,0,0,1-7.26-.69c-3.08-2.61-3.37-7.51-1.92-12.24,1.3-4.13,3.75-7.91,6.9-8.92a3.53,3.53,0,0,1,4.1.91c1.57,1.44,3.25,1.39,3.87,5.3a5.42,5.42,0,0,1,.1.94c3.32-.77,5.67-5,7.49-9.79,0.31-.86.72-1,1.26-0.63,1,0.67,1.91,2.88,1.29,5.84-0.53,2.6-2,6.82-2.49,9.7-0.62,3.41,0,5.53,1.72,5,2.33-.65,4.51-4.87,5.25-9,0.1-.53.53-0.63,0.91-0.21A4.29,4.29,0,0,1,532.67,269.4ZM508.59,262a19.62,19.62,0,0,0-3,6c-1.32,4.53-1,9.69.69,10.55s4.6-1.79,6.06-7.2a35.45,35.45,0,0,0,1-5A6.68,6.68,0,0,1,508.59,262Zm4.17-1c-0.56-1.68-1.66-1.08-1.57.53a4.2,4.2,0,0,0,2.11,3.29A9.87,9.87,0,0,0,512.76,261Zm12.65-12.1c0.65-1.11,2.4-.84,3.39.51a3.41,3.41,0,0,1,.43,3.56c-0.46,1-2,1.14-3.13-.12A3.41,3.41,0,0,1,525.41,248.93Z" transform="translate(-4.89 -3.2)"/><path class="cls-2" d="M538.2,273.7c-0.46,1-2.08,1-3.12-.07a3.34,3.34,0,0,1-.63-4c0.6-1,2.29-.81,3.33.53A3.54,3.54,0,0,1,538.2,273.7Zm6-36.61c1,1.34,1.54,4,.26,8.45-1.72,6-4.28,15.41-5.63,22-0.14.6-.33,0.75-0.86,0.42-1-.67-1.94-2.31-1.51-5.79a134.81,134.81,0,0,1,6.38-24.86C543.14,236.55,543.73,236.42,544.23,237.09Z" transform="translate(-4.89 -3.2)"/><path class="cls-2" d="M551.44,270.65c-0.46.95-2.08,1-3.11-.07a3.34,3.34,0,0,1-.63-4c0.6-1,2.29-.81,3.33.53A3.54,3.54,0,0,1,551.44,270.65Zm6-36.61c1,1.34,1.54,4,.26,8.45-1.72,6-4.28,15.41-5.63,22-0.14.6-.33,0.75-0.86,0.42-1-.67-1.94-2.31-1.51-5.79a134.76,134.76,0,0,1,6.38-24.86C556.38,233.5,557,233.36,557.47,234Z" transform="translate(-4.89 -3.2)"/></svg>