<?xml version="1.0" encoding="utf-8"?>
<!-- Generator: Adobe Illustrator 21.1.0, SVG Export Plug-In . SVG Version: 6.00 Build 0)  -->
<svg version="1.1" id="レイヤー_1" xmlns="http://www.w3.org/2000/svg" xmlns:xlink="http://www.w3.org/1999/xlink" x="0px"
	 y="0px" viewBox="0 0 318 34" style="enable-background:new 0 0 318 34;" xml:space="preserve">
<style type="text/css">
	.st0{fill:#FFFFFF;}
</style>
<g>
	<path class="st0" d="M23.9,10.4c0,0.7-0.5,1.4-1.4,1.4c-0.9,0-1-0.2-1.9-2.1c-0.5-1-2.1-4.2-7.2-4.2C10.1,5.5,8,7.1,7,8.4
		c-2.4,3.2-2.5,7.7-2.5,9.3c0,8,3.9,11.7,9,11.7c1.9,0,5.9-0.8,8-5.7c0.3-0.6,0.5-1.3,1.3-1.3c0.8,0,1.4,0.6,1.4,1.5
		c0,1.7-3,8.3-10.8,8.3c-7.5,0-12-5.9-12-14.5C1.4,7.3,6.8,2.6,13.7,2.6C20.5,2.6,23.9,8.5,23.9,10.4z"/>
	<path class="st0" d="M43.2,27.9c-0.7,2.2-1.7,2.5-2.9,2.5c-1.6,0-2.3-1.1-2.7-2.5l-7-21.2c-0.1-0.3-0.3-0.6-0.5-0.6
		c-0.4,0-0.4,0.6-0.4,0.8v23.9c0,0.6-0.5,1.4-1.3,1.4c-0.8,0-1.4-0.5-1.4-1.4V5.6c0-1.9,0.9-3.1,3-3.1c1.7,0,2.6,1.2,3,2.6l6.7,20.4
		c0.4,1.1,0.4,1.2,0.8,1.2c0.4,0,0.4-0.1,0.8-1.2l6.7-20.4c0.8-2.6,2.4-2.6,3.1-2.6c0.5,0,2.8,0,2.8,3.1v25.2c0,0.6-0.4,1.4-1.3,1.4
		c-0.7,0-1.4-0.5-1.4-1.4V6.9c0-0.2,0-0.8-0.5-0.8c-0.3,0-0.4,0.3-0.5,0.6L43.2,27.9z"/>
	<path class="st0" d="M76.2,8.6c0,0.8-0.5,1.4-1.3,1.4c-0.5,0-0.8-0.2-1.4-1c-0.6-0.9-2.6-3.9-6.9-3.9c-3.5,0-5.7,2.1-5.7,4.8
		c0,3.1,3.2,4.1,7.7,5.6c4.3,1.4,8.5,2.8,8.5,8.1c0,4.9-4.4,8.5-10,8.5c-7.3,0-10.8-6-10.8-8.2c0-0.7,0.5-1.4,1.4-1.4
		c0.8,0,0.9,0.3,2,2.4c1.5,3,4.3,4.3,7.4,4.3c4.4,0,7.1-2.7,7.1-5.5c0-3.4-3-4.4-5-5.1c-6.1-2.1-6.8-2.3-8.2-3.3c-3-2.1-3-4.4-3-5.3
		c0-4.6,3.9-7.6,8.9-7.6C72.9,2.6,76.2,7.3,76.2,8.6z"/>
	<path class="st0" d="M80.3,12.3c-1,0-2.1,0-2.1-1.3s1.2-1.3,2.1-1.3H93V2.5c0-0.9,0-2.1,1.3-2.1c1.3,0,1.3,1.2,1.3,2.1v7.3h13
		c0.9,0,2.1,0,2.1,1.3s-1.2,1.3-2.1,1.3H95.6c1.1,11.3,10.1,16.3,12.8,17.9c2,1.2,2.2,1.3,2.2,1.9c0,0.9-0.9,1.3-1.3,1.3
		c-0.8,0-5.5-2.7-8.7-5.8c-4-3.9-5.7-8-6.3-9.6c-0.5,1.7-2.1,6.6-7.3,10.9c-3.2,2.7-6.8,4.4-7.8,4.4c-0.8,0-1.2-0.7-1.2-1.2
		c0-0.8,0.4-1,1.8-1.6c12-5.7,12.7-15.3,13-18.2H80.3z"/>
	<path class="st0" d="M116.7,3.9c-1.2,0-1.2,0.2-1.2,1.4v26.3c0,0.8,0,1.9-1.2,1.9c-1.2,0-1.2-1-1.2-1.9V5.3c0-1.7,0-3.7,2.6-3.7h6
		c0.9,0,2.3,0,2.3,2.2c0,4.1-2.3,7.4-3.3,9.1c3,3.5,3.6,6.4,3.6,8.5c0,2.7-1.4,4.7-5.1,4.7c-0.8,0-2.7-0.1-2.7-1.5
		c0-0.6,0.3-1.2,1.1-1.2c0.5,0,1.5,0.2,1.8,0.2c2.1,0,2.4-1.3,2.4-2.7c0-1.2-0.2-3.6-3.3-7.2c-0.2-0.2-0.5-0.6-0.5-1
		c0-0.3,0.1-0.5,0.4-0.9c1.5-2,3.2-5.1,3.2-7.1c0-0.8-0.4-0.8-1.2-0.8H116.7z M128.6,13.2c-0.2,9.7-0.9,13.8-4.2,19
		c-0.4,0.6-0.8,1.1-1.4,1.1c-1,0-1.2-0.8-1.2-1.2c0-0.1,0.1-0.4,0.3-0.8c3.8-5.9,4-9.5,4-20.2V4.7c0-1.2,0.3-3,3-3h13.2
		c0.9,0,2,0,2,1.2c0,1.2-1.1,1.2-2,1.2h-12.6c-1.2,0-1.2,0.5-1.2,1.3v5.3h12.1c2.3,0,2.3,1.8,2.3,2.5c0,2.5-1.8,8-5.3,12.2
		c1.1,1.2,3,3.3,5.8,5.3c0.6,0.5,1,0.8,1,1.5c0,0.7-0.6,1.1-1.2,1.1c-1.2,0-4.5-2.6-7.3-6c-3.7,3.7-7.8,5.8-8.7,5.8
		c-0.6,0-1.2-0.6-1.2-1.2c0-0.8,0.6-1.1,1-1.3c1.5-0.8,4.2-2.2,7.3-5.3c-3.5-5.2-4.4-9.7-4.6-12.2H128.6z M132.3,13.2
		c0.1,1.5,0.9,5.9,3.9,10.3c3-3.8,4.3-8.1,4.3-9.6c0-0.6-0.4-0.8-1-0.8H132.3z"/>
	<path class="st0" d="M154.4,20.2c-3,0-3.3-2-3.3-2.9V8.7c0-1,0.4-2.9,3.3-2.9h7.1l0.6-2.1h-13.4c-0.8,0-1.7,0-1.7-1
		c0-1,0.9-1,1.7-1h29.5c0.8,0,1.7,0,1.7,1c0,1-0.9,1-1.7,1h-13.5L164,5.8h8.5c2.9,0,3.3,2,3.3,2.9v8.7c0,1-0.4,2.9-3.3,2.9h-11.8
		c-0.6,0.8-1.2,1.4-1.8,2.1h13.3c1.7,0,2.3,0.9,2.3,1.8c0,2-3.5,3.8-6.3,5.1c3.6,1.2,6.8,1.7,10.6,1.9c0.8,0,1.5,0.3,1.5,1.2
		c0,1.1-1.2,1.1-1.5,1.1c-4.7,0-9.3-1.1-13.7-2.9c-6.8,2.4-14.7,3-15,3c-0.6,0-1.5,0-1.5-1.2c0-0.9,0.7-1.1,2.2-1.2
		c2-0.2,7.4-0.8,11.3-2c-0.6-0.4-3.2-1.8-5.5-4.6c-5.1,4.2-8.7,4.9-9,4.9c-0.6,0-1.1-0.4-1.1-1.1c0-0.7,0.3-0.9,1.8-1.4
		c2.1-0.8,5.8-2.5,9.4-6.5H154.4z M173.4,9.9V9.1c0-0.3-0.3-1.2-1.4-1.2h-17.2c-1.2,0-1.4,0.9-1.4,1.2v0.8H173.4z M153.4,11.9v2.2
		h20v-2.2H153.4z M153.4,16v0.9c0,0.3,0.3,1.2,1.4,1.2H172c1.2,0,1.4-0.9,1.4-1.2V16H153.4z M159.7,24.4c1.7,1.7,3.6,2.7,5.5,3.6
		c3.5-1.5,5.9-2.9,5.9-3.3c0-0.3-0.3-0.3-0.5-0.3H159.7z"/>
	<path class="st0" d="M189.8,5c-1.9,2.3-5.2,4.8-6,4.8c-0.6,0-1.2-0.5-1.2-1.2c0-0.6,0-0.6,1.7-1.8c1.5-1.1,3.7-2.6,5.6-6.4
		c0.2-0.5,0.4-0.8,1.1-0.8c0.8,0,1.2,0.5,1.2,1c0,0.4-0.5,1.4-0.9,2.1h5.6c0.9,0,2.7,0,2.7,2.2c0,2.1-2.3,7.2-9,11.3
		c-2.7,1.7-6.5,3.3-7.2,3.3s-1.2-0.6-1.2-1.3c0-0.7,0.8-1.1,1-1.2c1.3-0.5,4.7-2.1,5.5-2.5c-0.7-0.8-1.7-1.9-2.2-2.4
		c-0.8-0.7-1-1-1-1.4c0-0.7,0.6-1.2,1.2-1.2c0.4,0,0.6,0,4,3.7c0.1-0.1,1.1-0.8,2.3-1.9c-0.3-0.3-1.2-1.1-1.9-1.7
		C189.3,8.2,189,8,189,7.5c0-0.8,0.6-1.1,1.1-1.1c0.8,0,3,1.8,4.5,3.3c0.6-0.8,2.4-3.2,2.4-4.1c0-0.6-0.5-0.6-1-0.6H189.8z
		 M184.1,32.9c-0.6,0-1.2-0.5-1.2-1.2c0-0.5,0.1-0.6,1.7-1.7c3.2-2.3,4-3.3,5.8-5.7c0.4-0.5,0.7-0.9,1.3-0.9c1,0,1.4,0.9,1.3,1.4
		C192.4,26.8,185.7,32.9,184.1,32.9z M200.9,30.4c0,1,0,2.9-2.7,2.9c-1.2,0-3.6-0.6-5.4-1.6c-0.5-0.3-0.7-0.6-0.7-1.1
		c0-0.8,0.6-1.2,1.1-1.2c0.3,0,0.5,0.1,2,0.8c1,0.5,2.1,0.6,2.3,0.6c0.7,0,0.8-0.3,0.8-1v-7.5h-10.8c-0.9,0-2,0-2-1.2
		c0-1.2,1.1-1.2,2-1.2h23.8c0.9,0,2,0,2,1.2c0,1.2-1.1,1.2-2,1.2h-10.5V30.4z M195.2,16.3c-0.9,0-1.9,0-1.9-1.2
		c0-1.2,1.1-1.2,1.9-1.2h9.5c0.9,0,1.9,0,1.9,1.2c0,1.2-1,1.2-1.9,1.2H195.2z M205.2,4.5c-0.8,0-1.8,0-1.8-1.1s1-1.1,1.8-1.1h6.1
		c1.4,0,2.6,0.2,2.6,2c0,2.4-4,5.6-6.6,7.3c1.6,1.6,4,3.2,7.9,4.7c1,0.4,1.3,0.7,1.3,1.3c0,0.1,0,1.3-1.2,1.3
		c-1.4,0-9.4-3-13.7-10.9c-1.3-2.3-2.2-4.9-2.2-5.4c0-0.6,0.5-1.1,1.1-1.1c0.8,0,1,0.5,1.2,1.2c0.7,2,2.3,5.1,4,7.3
		c2.6-1.7,5.1-4,5.1-4.7c0-0.6-0.6-0.6-1-0.6H205.2z M214.7,32.8c-2.1,0-10-6.5-10-8.3c0-0.7,0.5-1.3,1.2-1.3c0.5,0,0.6,0.1,1.7,1.4
		c2.2,2.3,4,3.7,5.9,4.9c2.1,1.3,2.3,1.4,2.3,2.1C215.9,32.3,215.1,32.8,214.7,32.8z"/>
	<path class="st0" d="M222.7,3.4c0,1.2-0.4,2.9-0.6,4.1c-0.4,2.9-0.5,4.4-0.5,6.1c0,1.7,0,5.4,2.2,5.4c0.5,0,1.3-0.4,1.8-0.8
		c0.7-0.6,0.9-0.8,1.3-0.8c0.7,0,1.3,0.6,1.3,1.3c0,1-2.4,3-4.9,3c-3,0-4.1-3-4.1-7.8c0-3,0.6-8.3,1-10.4c0.1-0.6,0.3-1.1,1-1.3
		C221.7,2,222.7,2.3,222.7,3.4z M233,29.7c-4,2.2-7.6,2.4-8,2.4c-0.8,0-1.4-0.6-1.4-1.4c0-1.1,0.5-1.2,2.3-1.5
		c3.7-0.6,7.2-2.2,9.5-4.6c2.5-2.5,3.4-5.8,3.4-12.5c0-1.3-0.1-5.3-0.5-8.6c0-0.3,0-0.5,0-0.6c0-0.9,0.7-1.4,1.4-1.4
		c0.6,0,0.9,0.3,1.1,0.5c0.6,0.8,0.8,7.1,0.8,8.3C241.5,20.1,240.7,25.6,233,29.7z"/>
	<path class="st0" d="M261.5,28.9c0.8,0,1.3,0.7,1.3,1.4s-0.5,1.4-1.3,1.4h-14.2c-2.2,0-3.1-1.3-3.1-3.3c0-5.8,6.5-9.9,8.9-11.4
		c3.3-2.1,6.1-3.8,6.1-7c0-1-0.3-4.5-5.5-4.5c-4.9,0-6.3,3.2-6.6,4.5c-0.5,1.8-0.6,2.4-1.7,2.4c-0.8,0-1.2-0.6-1.2-1.5
		c0-2.5,2.4-8.2,9.5-8.2c5.9,0,8.3,3.8,8.3,7.3c0,4.6-3.6,6.8-6.7,8.8c-3.6,2.3-8.2,5.7-8.2,9.2c0,0.8,0.4,0.9,0.9,0.9H261.5z"/>
	<path class="st0" d="M283.4,17.4c0,7.2-1.7,14.8-9.5,14.8c-7.6,0-9.5-7.2-9.5-14.8c0-7,1.6-14.8,9.5-14.8
		C281.5,2.6,283.4,9.9,283.4,17.4z M267.3,17.4c0,7,1.6,12.1,6.7,12.1c5,0,6.7-5,6.7-12.1c0-6.9-1.6-12.1-6.7-12.1
		C268.7,5.4,267.3,10.7,267.3,17.4z"/>
	<path class="st0" d="M291.2,7.2l-3.2,3.8c-0.4,0.4-0.7,0.5-0.9,0.5c-0.9,0-1.5-0.7-1.5-1.4c0-0.4,0.2-0.8,0.4-1l4.9-5.8
		c0.5-0.6,1-0.8,1.5-0.8c0.8,0,1.5,0.4,1.5,1.3v27.1c0,0.6-0.6,1.3-1.4,1.3c-0.7,0-1.3-0.6-1.3-1.3V7.2z"/>
	<path class="st0" d="M296.9,6.3c0-1.8,0.9-3.1,2.7-3.1h12.7c1.4,0,2.9,0.8,2.9,3c0,2.8-1.1,5.3-4,10.6c-2.3,4.1-4.4,8.4-4.4,12.6
		c0,0.2,0.1,1.3,0.1,1.5c0,0.9-0.7,1.3-1.4,1.3c-1.3,0-1.5-1-1.5-2.6c0-3.1,0.8-6.6,5.4-15.1c1.7-3.2,3-5.6,3-7.4
		c0-0.5-0.2-1.2-0.8-1.2h-11.2c-0.6,0-0.7,0.6-0.7,0.9v4.7c0,0.6-0.5,1.3-1.4,1.3c-0.7,0-1.3-0.5-1.3-1.3V6.3z"/>
</g>
</svg>
